<svg id="Objects_copy" data-name="Objects copy" xmlns="http://www.w3.org/2000/svg" viewBox="0 0 1469.55 1469.55"><defs><style>.cls-1{fill:#fff;}.cls-2{fill:#0c68dc;}.cls-3{fill:#578ee3;}</style></defs><rect class="cls-1" width="1469.55" height="1469.55"/><path class="cls-2" d="M1407.75,1237.25H877.2A15,15,0,0,1,862.8,1218l265.27-906.73c4.21-14.39,24.59-14.39,28.8,0L1422.14,1218A15,15,0,0,1,1407.75,1237.25Z"/><path class="cls-3" d="M1120.91,1237.25H593.45A15,15,0,0,1,579.38,1217L843.11,505.81c4.84-13.05,23.3-13.05,28.13,0L1135,1217A15,15,0,0,1,1120.91,1237.25Z"/><path class="cls-2" d="M832.72,1237.25H311.06a15,15,0,0,1-13.37-21.8L558.52,702.79a15,15,0,0,1,26.74,0l260.83,512.66A15,15,0,0,1,832.72,1237.25Z"/><circle class="cls-2" cx="134.76" cy="676.52" r="111.46" transform="translate(-438.9 293.43) rotate(-45)"/><circle class="cls-3" cx="409.05" cy="467.88" r="111.46" transform="translate(-211.03 426.28) rotate(-45)"/><circle class="cls-2" cx="699.86" cy="262.1" r="111.46" transform="translate(19.65 571.64) rotate(-45)"/><rect class="cls-2" x="134.76" y="675.58" width="385.76" height="1.87"/><rect class="cls-3" x="409.05" y="466.94" width="402.74" height="1.87"/><rect class="cls-2" x="699.86" y="261.16" width="402.74" height="1.87"/><path class="cls-1" d="M91.65,695.05v8.76c0,6.74,3,9.16,7.68,9.16s7.68-2.42,7.68-9.16V683.06c0-6.74-3-9.3-7.68-9.3s-7.68,2.56-7.68,9.3v2.83h-14l2.69-54.72h39.08v13.48H93.67l-1.21,22.51c2.7-4.45,7-6.88,12.94-6.88,10.91,0,16.44,7.68,16.44,21.56v21c0,15.09-7.55,23.72-22.1,23.72s-22.1-8.63-22.1-23.72v-7.82Z"/><path class="cls-1" d="M131.68,725.51V711.22H146V724l-6.47,15h-6.06l3.91-13.47Z"/><path class="cls-1" d="M200.27,631.17v12.94l-21.83,81.4H163.62l21.69-80.86H155.8V631.17Z"/><path class="cls-1" d="M349.48,442.46c0-15.9,7.28-24.53,22.64-24.53,14.56,0,22.1,8.63,22.1,23.72v2.43h-14v-3.37c0-6.74-3-9.3-7.68-9.3-5.26,0-8.22,2.56-8.22,11.59v17.25c2.56-5.39,7.14-8.36,13.74-8.36,10.92,0,16.44,7.68,16.44,21.56V490.7c0,15.1-7.95,23.72-22.5,23.72s-22.51-8.62-22.51-23.72Zm14.83,32.21v17c0,6.73,3,9.16,7.68,9.16s7.68-2.43,7.68-9.16v-17c0-6.74-3-9.3-7.68-9.3S364.31,467.93,364.31,474.67Z"/><path class="cls-1" d="M403.79,513.34V499.06h14.29v12.8l-6.47,15h-6.06l3.9-13.48Z"/><path class="cls-1" d="M450.55,431.41c-4.71,0-7.68,2.56-7.68,9.3v10.1h-14v-9.16c0-15.09,7.55-23.72,22.1-23.72s22.1,8.63,22.1,23.72c0,29.65-29.51,40.7-29.51,56.2a10.6,10.6,0,0,0,.13,2h28v13.47H428.86V501.75c0-27.76,29.38-32.34,29.38-59.56C458.24,433.7,455.27,431.41,450.55,431.41Z"/><path class="cls-1" d="M662.67,313.27c-15,0-23.18-8.62-23.18-23.72v-7.41c0-9,2.69-16,9.16-19.67-6.2-3.37-9.16-9.71-9.16-19v-3c0-15.09,8.22-23.72,23.18-23.72s23.17,8.63,23.17,23.72v3c0,9.29-3.1,15.63-9.16,19,6.47,3.64,9.16,10.64,9.16,19.67v7.41C685.84,304.65,677.62,313.27,662.67,313.27Zm-8.36-67c0,7.54,3.5,10,8.36,10s8.35-2.43,8.35-10V241c0-8.49-3.64-10.78-8.35-10.78s-8.36,2.29-8.36,10.78Zm8.36,53.5c4.71,0,8.21-2.29,8.35-10.65v-8.76c0-7.41-3.1-10.65-8.35-10.65s-8.36,3.24-8.36,10.65v8.76C654.31,297.51,658,299.8,662.67,299.8Z"/><path class="cls-1" d="M694.74,312.19V297.91H709v12.8l-6.46,15h-6.07l3.91-13.48Z"/><path class="cls-1" d="M763.33,288.75c0,15.9-7.27,24.52-22.64,24.52-14.55,0-22.1-8.62-22.1-23.72v-2.42h14v3.37c0,6.74,3,9.3,7.68,9.3,5.25,0,8.22-2.56,8.22-11.59V271c-2.56,5.39-7.14,8.35-13.75,8.35-10.91,0-16.44-7.68-16.44-21.56V240.5c0-15.09,7.95-23.72,22.51-23.72s22.5,8.63,22.5,23.72Zm-14.82-32.21v-17c0-6.74-3-9.17-7.68-9.17s-7.68,2.43-7.68,9.17v17c0,6.74,3,9.3,7.68,9.3S748.51,263.28,748.51,256.54Z"/></svg>