<svg id="Objects_copy" data-name="Objects copy" xmlns="http://www.w3.org/2000/svg" viewBox="0 0 1469.55 1469.55"><defs><style>.cls-1{fill:#fff;}.cls-2{fill:#578ee3;}.cls-3{fill:#0c68dc;}.cls-4{fill:#2073ad;}</style></defs><rect class="cls-1" width="1469.55" height="1469.55"/><path class="cls-2" d="M1130.28,355.25l-205.5,205.5a259.78,259.78,0,0,0-171.91-81.7V188.16C900.84,192.93,1034.06,256.05,1130.28,355.25Z"/><path class="cls-2" d="M1285.75,738.83q0,18.93-1.28,37.54h-292A260.86,260.86,0,0,0,947.77,589l206.89-206.89A548.67,548.67,0,0,1,1285.75,738.83Z"/><path class="cls-3" d="M1280.85,812.58c-35.25,263.59-256.87,468.18-528,476.93q-9,.3-18.1.3t-18.1-.3A548.56,548.56,0,0,1,378,1158.72q-13.83-11.73-26.85-24.37A549.62,549.62,0,0,1,188.69,812.58l-3.62-36.21q-1.27-18.6-1.27-37.54c0-298.23,236.94-541.12,532.87-550.67V479.05c-135.38,9.29-242.31,122.06-242.31,259.78A262.57,262.57,0,0,0,477,776.37,260.39,260.39,0,0,0,716.67,998.62q9,.64,18.1.63t18.1-.63c110.2-7.55,201.55-83.68,231.71-186Z"/><path class="cls-4" d="M188.69,812.58q-2.4-17.93-3.62-36.21Z"/><path class="cls-4" d="M188.69,812.58q-2.4-17.93-3.62-36.21Z"/><path class="cls-1" d="M413.18,952.21V970l-30.07,112.12H362.69l29.88-111.37H351.92V952.21Z"/><path class="cls-1" d="M426.73,1082.15v-19.68H446.4v17.63l-8.91,20.61h-8.35l5.38-18.56Z"/><path class="cls-1" d="M479.62,1040.2v12.06c0,9.28,4.09,12.62,10.58,12.62s10.58-3.34,10.58-12.62v-28.58c0-9.29-4.08-12.81-10.58-12.81s-10.58,3.52-10.58,12.81v3.89h-19.3L464,952.21h53.83v18.57H482.41l-1.67,31c3.71-6.12,9.65-9.46,17.82-9.46,15,0,22.64,10.58,22.64,29.69v29c0,20.79-10.39,32.67-30.44,32.67s-30.44-11.88-30.44-32.67V1040.2Z"/><path class="cls-1" d="M829.38,338.35c10.7,0,13.09-5.16,15.24-11.08h9.32v88.16H840.08V348.17h-10.7Z"/><path class="cls-1" d="M891,338.85c-4.41,0-7.18,2.4-7.18,8.7V357h-13.1v-8.56c0-14.11,7-22.17,20.66-22.17S912,334.32,912,348.43c0,27.71-27.58,38-27.58,52.52a10,10,0,0,0,.12,1.89h26.2v12.59h-40V404.6c0-25.94,27.46-30.23,27.46-55.67C898.15,341,895.38,338.85,891,338.85Z"/><path class="cls-1" d="M920.57,415.43V402.08h13.35v12l-6,14h-5.67l3.65-12.6Z"/><path class="cls-1" d="M956.47,387v8.19c0,6.29,2.77,8.56,7.18,8.56s7.18-2.27,7.18-8.56v-19.4c0-6.3-2.78-8.69-7.18-8.69s-7.18,2.39-7.18,8.69v2.64h-13.1l2.52-51.13h36.52v12.59H958.35l-1.13,21c2.52-4.16,6.55-6.43,12.09-6.43,10.21,0,15.37,7.18,15.37,20.16v19.64c0,14.11-7,22.17-20.66,22.17s-20.65-8.06-20.65-22.17V387Z"/><path class="cls-1" d="M1048,600.66c10.71,0,13.1-5.16,15.24-11.08h9.32v88.17h-13.85V610.49H1048Z"/><path class="cls-1" d="M1109.56,601.16c-4.41,0-7.18,2.4-7.18,8.7v9.44h-13.1v-8.56c0-14.11,7.06-22.17,20.66-22.17s20.66,8.06,20.66,22.17c0,27.71-27.59,38-27.59,52.52a9.25,9.25,0,0,0,.13,1.89h26.2v12.6h-40.06V666.91c0-25.94,27.46-30.23,27.46-55.67C1116.74,603.31,1114,601.16,1109.56,601.16Z"/><path class="cls-1" d="M1139.16,677.75V664.39h13.36v12l-6,14h-5.67l3.65-12.59Z"/><path class="cls-1" d="M1175.06,649.28v8.19c0,6.29,2.77,8.56,7.18,8.56s7.18-2.27,7.18-8.56v-19.4c0-6.3-2.77-8.69-7.18-8.69s-7.18,2.39-7.18,8.69v2.64H1162l2.52-51.13H1201v12.59H1177l-1.13,21c2.52-4.16,6.55-6.43,12.09-6.43,10.2,0,15.36,7.18,15.36,20.16v19.64c0,14.11-7,22.17-20.65,22.17S1162,670.69,1162,656.58v-7.3Z"/></svg>