<svg id="Objects_copy" data-name="Objects copy" xmlns="http://www.w3.org/2000/svg" viewBox="0 0 1469.55 1469.55"><defs><style>.cls-1,.cls-5{fill:#fff;}.cls-2{fill:#578ee3;}.cls-3{fill:#0c68dc;}.cls-4,.cls-5{opacity:0.5;}</style></defs><rect class="cls-1" width="1469.55" height="1469.55"/><polyline class="cls-2" points="207.49 244.06 207.49 183.33 213.21 183.33 213.21 1217.1 207.49 1217.1 207.49 244.06"/><rect class="cls-2" x="791.8" y="626.15" width="6.53" height="1175.38" transform="translate(2008.9 418.77) rotate(90)"/><path class="cls-2" d="M60,1115.11h-.11l-6.1,3.29-.91-3.61,7.67-4.1h4v35.14H60Z"/><path class="cls-2" d="M100.81,1127.91c0,11.91-4.46,18.51-12.22,18.51-6.86,0-11.53-6.42-11.64-18,0-11.81,5.1-18.29,12.23-18.29C96.59,1110.1,100.81,1116.72,100.81,1127.91Zm-19.07.49c0,9.16,2.81,14.34,7.12,14.34,4.85,0,7.17-5.67,7.17-14.62,0-8.67-2.2-14.32-7.13-14.32C84.76,1113.8,81.73,1118.88,81.74,1128.4Z"/><path class="cls-2" d="M128.54,1127.91c0,11.91-4.46,18.51-12.22,18.51-6.86,0-11.53-6.42-11.64-18,0-11.81,5.09-18.29,12.23-18.29C124.31,1110.1,128.54,1116.72,128.54,1127.91Zm-19.08.49c0,9.16,2.81,14.34,7.13,14.34,4.85,0,7.17-5.67,7.17-14.62,0-8.67-2.2-14.32-7.13-14.32C112.49,1113.8,109.46,1118.88,109.46,1128.4Z"/><path class="cls-2" d="M156.27,1127.91c0,11.91-4.46,18.51-12.22,18.51-6.86,0-11.53-6.42-11.64-18,0-11.81,5.09-18.29,12.23-18.29C152,1110.1,156.27,1116.72,156.27,1127.91Zm-19.08.49c0,9.16,2.81,14.34,7.13,14.34,4.85,0,7.16-5.67,7.16-14.62,0-8.67-2.19-14.32-7.13-14.32C140.22,1113.8,137.19,1118.88,137.19,1128.4Z"/><path class="cls-2" d="M49.69,919.46v-2.89l3.73-3.63c9-8.55,13.06-13.11,13.08-18.41,0-3.57-1.69-6.88-6.92-6.88a12.15,12.15,0,0,0-7.48,3l-1.51-3.33a15.42,15.42,0,0,1,9.94-3.57c7.55,0,10.73,5.19,10.73,10.19,0,6.53-4.7,11.77-12.1,18.87l-2.78,2.62v.11H72.13v3.94Z"/><path class="cls-2" d="M100.81,901.53c0,11.92-4.46,18.52-12.22,18.52-6.86,0-11.53-6.42-11.64-18,0-11.81,5.1-18.29,12.23-18.29C96.59,883.73,100.81,890.35,100.81,901.53Zm-19.07.5c0,9.16,2.81,14.33,7.12,14.33,4.85,0,7.17-5.66,7.17-14.61,0-8.67-2.2-14.32-7.13-14.32C84.76,887.43,81.73,892.51,81.74,902Z"/><path class="cls-2" d="M128.54,901.53c0,11.92-4.46,18.52-12.22,18.52-6.86,0-11.53-6.42-11.64-18,0-11.81,5.09-18.29,12.23-18.29C124.31,883.73,128.54,890.35,128.54,901.53Zm-19.08.5c0,9.16,2.81,14.33,7.13,14.33,4.85,0,7.17-5.66,7.17-14.61,0-8.67-2.2-14.32-7.13-14.32C112.49,887.43,109.46,892.51,109.46,902Z"/><path class="cls-2" d="M156.27,901.53c0,11.92-4.46,18.52-12.22,18.52-6.86,0-11.53-6.42-11.64-18,0-11.81,5.09-18.29,12.23-18.29C152,883.73,156.27,890.35,156.27,901.53Zm-19.08.5c0,9.16,2.81,14.33,7.13,14.33,4.85,0,7.16-5.66,7.16-14.61,0-8.67-2.19-14.32-7.13-14.32C140.22,887.43,137.19,892.51,137.19,902Z"/><path class="cls-2" d="M50.85,692.42a16.13,16.13,0,0,0,7.8,2.18c6.07,0,8-3.86,7.95-6.81-.06-4.93-4.52-7-9.09-7H54.85v-3.57h2.66c3.46,0,7.84-1.78,7.84-5.92,0-2.83-1.8-5.3-6.18-5.3a12.9,12.9,0,0,0-7,2.31l-1.28-3.43a16.63,16.63,0,0,1,9.2-2.72c7,0,10.09,4.09,10.09,8.39,0,3.63-2.21,6.71-6.48,8.27v.11c4.32.83,7.81,4.1,7.81,9,0,5.61-4.4,10.54-12.82,10.54a17.2,17.2,0,0,1-9.1-2.4Z"/><path class="cls-2" d="M100.81,679.93c0,11.92-4.46,18.52-12.22,18.52-6.86,0-11.53-6.43-11.64-18,0-11.81,5.1-18.29,12.23-18.29C96.59,662.13,100.81,668.74,100.81,679.93Zm-19.07.5c0,9.16,2.81,14.33,7.12,14.33,4.85,0,7.17-5.67,7.17-14.61,0-8.67-2.2-14.32-7.13-14.32C84.76,665.83,81.73,670.91,81.74,680.43Z"/><path class="cls-2" d="M128.54,679.93c0,11.92-4.46,18.52-12.22,18.52-6.86,0-11.53-6.43-11.64-18,0-11.81,5.09-18.29,12.23-18.29C124.31,662.13,128.54,668.74,128.54,679.93Zm-19.08.5c0,9.16,2.81,14.33,7.13,14.33,4.85,0,7.17-5.67,7.17-14.61,0-8.67-2.2-14.32-7.13-14.32C112.49,665.83,109.46,670.91,109.46,680.43Z"/><path class="cls-2" d="M156.27,679.93c0,11.92-4.46,18.52-12.22,18.52-6.86,0-11.53-6.43-11.64-18,0-11.81,5.09-18.29,12.23-18.29C152,662.13,156.27,668.74,156.27,679.93Zm-19.08.5c0,9.16,2.81,14.33,7.13,14.33,4.85,0,7.16-5.67,7.16-14.61,0-8.67-2.19-14.32-7.13-14.32C140.22,665.83,137.19,670.91,137.19,680.43Z"/><path class="cls-2" d="M64.41,472.85v-9.59H48.1v-3.1l15.65-22.45H68.9v21.87h4.93v3.68H68.9v9.59Zm0-13.27V447.82c0-1.83.06-3.67.18-5.51l-.18,0c-1.1,2.09-1.95,3.6-2.92,5.22l-8.57,12v.11Z"/><path class="cls-2" d="M100.81,454.92c0,11.92-4.46,18.52-12.22,18.52-6.86,0-11.53-6.42-11.64-18,0-11.81,5.1-18.29,12.23-18.29C96.59,437.12,100.81,443.73,100.81,454.92Zm-19.07.5c0,9.16,2.81,14.33,7.12,14.33,4.85,0,7.17-5.66,7.17-14.61,0-8.67-2.2-14.32-7.13-14.32C84.76,440.82,81.73,445.9,81.74,455.42Z"/><path class="cls-2" d="M128.54,454.92c0,11.92-4.46,18.52-12.22,18.52-6.86,0-11.53-6.42-11.64-18,0-11.81,5.09-18.29,12.23-18.29C124.31,437.12,128.54,443.73,128.54,454.92Zm-19.08.5c0,9.16,2.81,14.33,7.13,14.33,4.85,0,7.17-5.66,7.17-14.61,0-8.67-2.2-14.32-7.13-14.32C112.49,440.82,109.46,445.9,109.46,455.42Z"/><path class="cls-2" d="M156.27,454.92c0,11.92-4.46,18.52-12.22,18.52-6.86,0-11.53-6.42-11.64-18,0-11.81,5.09-18.29,12.23-18.29C152,437.12,156.27,443.73,156.27,454.92Zm-19.08.5c0,9.16,2.81,14.33,7.13,14.33,4.85,0,7.16-5.66,7.16-14.61,0-8.67-2.19-14.32-7.13-14.32C140.22,440.82,137.19,445.9,137.19,455.42Z"/><path class="cls-2" d="M70.67,212.6H57.29l-1.35,9a18.83,18.83,0,0,1,2.85-.19,14.78,14.78,0,0,1,7.58,1.9,10,10,0,0,1,5,9c0,6.86-5.44,12-13.07,12a17.25,17.25,0,0,1-8.76-2.17l1.2-3.63a15.54,15.54,0,0,0,7.53,2c4.44,0,8.32-2.95,8.29-7.67,0-4.51-3.07-7.73-10.08-7.73a34.1,34.1,0,0,0-4.89.35l2.28-16.86H70.67Z"/><path class="cls-2" d="M100.81,225.83c0,11.92-4.46,18.52-12.22,18.52-6.86,0-11.53-6.43-11.64-18C77,214.5,82,208,89.18,208,96.58,208,100.81,214.64,100.81,225.83Zm-19.08.5c0,9.16,2.81,14.33,7.13,14.33C93.71,240.66,96,235,96,226c0-8.67-2.2-14.32-7.13-14.32C84.76,211.72,81.73,216.8,81.73,226.33Z"/><path class="cls-2" d="M128.54,225.83c0,11.92-4.46,18.52-12.22,18.52-6.86,0-11.53-6.43-11.64-18,0-11.81,5.09-18.29,12.23-18.29C124.31,208,128.54,214.64,128.54,225.83Zm-19.08.5c0,9.16,2.81,14.33,7.13,14.33,4.85,0,7.16-5.67,7.16-14.62,0-8.67-2.19-14.32-7.13-14.32C112.49,211.72,109.46,216.8,109.46,226.33Z"/><path class="cls-2" d="M156.27,225.83c0,11.92-4.46,18.52-12.23,18.52-6.86,0-11.52-6.43-11.64-18,0-11.81,5.1-18.29,12.24-18.29C152,208,156.27,214.64,156.27,225.83Zm-19.08.5c0,9.16,2.81,14.33,7.13,14.33,4.85,0,7.16-5.67,7.16-14.62,0-8.67-2.19-14.32-7.13-14.32C140.21,211.72,137.19,216.8,137.19,226.33Z"/><path class="cls-2" d="M434.69,1276.12c0,11.92-4.46,18.52-12.22,18.52-6.86,0-11.53-6.43-11.64-18,0-11.81,5.09-18.29,12.23-18.29C430.46,1258.31,434.69,1264.93,434.69,1276.12Zm-19.08.5c0,9.16,2.81,14.33,7.13,14.33,4.85,0,7.16-5.67,7.16-14.62,0-8.67-2.19-14.32-7.13-14.32C418.64,1262,415.61,1267.09,415.61,1276.62Z"/><path class="cls-2" d="M439,1294v-2.89l3.73-3.62c9-8.55,13.06-13.12,13.08-18.41,0-3.57-1.69-6.88-6.92-6.88a12.2,12.2,0,0,0-7.48,3l-1.51-3.32a15.42,15.42,0,0,1,9.94-3.58c7.55,0,10.73,5.2,10.73,10.2,0,6.52-4.7,11.77-12.1,18.86l-2.78,2.63v.1h15.75V1294Z"/><path class="cls-2" d="M311.35,1276.12c0,11.92-4.46,18.52-12.22,18.52-6.86,0-11.53-6.43-11.64-18,0-11.81,5.09-18.29,12.23-18.29C307.12,1258.31,311.35,1264.93,311.35,1276.12Zm-19.08.5c0,9.16,2.81,14.33,7.13,14.33,4.85,0,7.17-5.67,7.17-14.62,0-8.67-2.2-14.32-7.13-14.32C295.3,1262,292.27,1267.09,292.27,1276.62Z"/><path class="cls-2" d="M326,1263.32h-.11l-6.1,3.29-.91-3.61,7.67-4.09h4V1294H326Z"/><path class="cls-2" d="M556.45,1276.12c0,11.92-4.46,18.52-12.23,18.52-6.86,0-11.52-6.43-11.63-18,0-11.81,5.09-18.29,12.23-18.29C552.22,1258.31,556.45,1264.93,556.45,1276.12Zm-19.08.5c0,9.16,2.81,14.33,7.13,14.33,4.85,0,7.16-5.67,7.16-14.62,0-8.67-2.19-14.32-7.13-14.32C540.4,1262,537.37,1267.09,537.37,1276.62Z"/><path class="cls-2" d="M561.94,1288.61a16.13,16.13,0,0,0,7.8,2.18c6.07,0,8-3.87,8-6.81-.06-4.94-4.52-7-9.09-7h-2.66v-3.57h2.66c3.46,0,7.84-1.78,7.84-5.93,0-2.82-1.8-5.29-6.18-5.29a12.9,12.9,0,0,0-7,2.31L562,1261a16.71,16.71,0,0,1,9.2-2.72c7,0,10.09,4.1,10.09,8.4,0,3.63-2.21,6.71-6.48,8.27v.11c4.32.82,7.81,4.1,7.81,9,0,5.6-4.4,10.54-12.82,10.54a17.29,17.29,0,0,1-9.1-2.4Z"/><path class="cls-2" d="M681.44,1276.12c0,11.92-4.46,18.52-12.22,18.52-6.86,0-11.53-6.43-11.64-18,0-11.81,5.1-18.29,12.23-18.29C677.22,1258.31,681.44,1264.93,681.44,1276.12Zm-19.07.5c0,9.16,2.81,14.33,7.12,14.33,4.85,0,7.17-5.67,7.17-14.62,0-8.67-2.2-14.32-7.13-14.32C665.39,1262,662.36,1267.09,662.37,1276.62Z"/><path class="cls-2" d="M700.5,1294v-9.59H684.18v-3.1l15.66-22.44H705v21.86h4.92v3.68H705V1294Zm0-13.27V1269c0-1.83.06-3.66.18-5.5l-.19,0c-1.09,2.09-2,3.6-2.92,5.23l-8.56,12,0,.11Z"/><path class="cls-2" d="M809.06,1276.12c0,11.92-4.46,18.52-12.22,18.52-6.86,0-11.53-6.43-11.64-18,0-11.81,5.09-18.29,12.23-18.29C804.83,1258.31,809.06,1264.93,809.06,1276.12Zm-19.08.5c0,9.16,2.81,14.33,7.13,14.33,4.85,0,7.17-5.67,7.17-14.62,0-8.67-2.2-14.32-7.13-14.32C793,1262,790,1267.09,790,1276.62Z"/><path class="cls-2" d="M834.37,1262.89H821l-1.35,9a20,20,0,0,1,2.85-.19,14.78,14.78,0,0,1,7.58,1.9,10,10,0,0,1,5,9c0,6.85-5.44,12-13.06,12a17.26,17.26,0,0,1-8.77-2.17l1.21-3.63a15.53,15.53,0,0,0,7.52,2c4.45,0,8.32-3,8.29-7.67,0-4.51-3.06-7.73-10.07-7.73a32.51,32.51,0,0,0-4.89.36l2.27-16.87h16.79Z"/><path class="cls-2" d="M934.8,1276.12c0,11.92-4.46,18.52-12.22,18.52-6.86,0-11.52-6.43-11.64-18,0-11.81,5.1-18.29,12.23-18.29C930.58,1258.31,934.8,1264.93,934.8,1276.12Zm-19.07.5c0,9.16,2.81,14.33,7.12,14.33,4.85,0,7.17-5.67,7.17-14.62,0-8.67-2.2-14.32-7.13-14.32C918.75,1262,915.72,1267.09,915.73,1276.62Z"/><path class="cls-2" d="M959.22,1262.24a19.58,19.58,0,0,0-3.6.26A14.1,14.1,0,0,0,943.45,1275h.13a10.35,10.35,0,0,1,8.48-4.09c6.25,0,10.62,4.51,10.62,11.35,0,6.45-4.39,12.4-11.71,12.4-7.48,0-12.4-5.85-12.4-15,0-6.91,2.47-12.39,5.95-15.85a19.21,19.21,0,0,1,11.24-5.21,20.65,20.65,0,0,1,3.43-.26Zm-1.36,20.3c0-5-2.88-8-7.22-8a7.81,7.81,0,0,0-6.85,4.31,4.37,4.37,0,0,0-.51,2.08c.07,5.79,2.73,10.11,7.73,10.11C955.1,1291,957.86,1287.56,957.86,1282.54Z"/><path class="cls-2" d="M1059.46,1276.12c0,11.92-4.46,18.52-12.22,18.52-6.86,0-11.53-6.43-11.64-18,0-11.81,5.09-18.29,12.23-18.29C1055.23,1258.31,1059.46,1264.93,1059.46,1276.12Zm-19.08.5c0,9.16,2.81,14.33,7.13,14.33,4.85,0,7.17-5.67,7.17-14.62,0-8.67-2.2-14.32-7.13-14.32C1043.41,1262,1040.38,1267.09,1040.38,1276.62Z"/><path class="cls-2" d="M1086.63,1258.91V1262l-15.31,32h-4.89l15.21-31.09v-.11h-17.16v-3.93Z"/><path class="cls-2" d="M1186.29,1276.12c0,11.92-4.46,18.52-12.22,18.52-6.86,0-11.53-6.43-11.64-18,0-11.81,5.09-18.29,12.23-18.29C1182.06,1258.31,1186.29,1264.93,1186.29,1276.12Zm-19.08.5c0,9.16,2.81,14.33,7.13,14.33,4.85,0,7.16-5.67,7.16-14.62,0-8.67-2.19-14.32-7.12-14.32C1170.24,1262,1167.21,1267.09,1167.21,1276.62Z"/><path class="cls-2" d="M1190.23,1285.14c0-4.43,2.66-7.57,6.94-9.44v-.17c-3.93-1.81-5.62-4.82-5.62-7.87,0-5.54,4.72-9.35,10.92-9.35,6.78,0,10.21,4.25,10.21,8.64,0,3-1.49,6.2-5.78,8.21v.17c4.36,1.71,7.06,4.84,7.06,9.07,0,6.14-5.23,10.24-12,10.24C1194.67,1294.64,1190.23,1290.27,1190.23,1285.14Zm18.9-.25c0-4.24-3-6.31-7.72-7.64-4.09,1.16-6.33,3.9-6.33,7.24-.15,3.55,2.53,6.67,7,6.67C1206.39,1291.16,1209.13,1288.5,1209.13,1284.89Zm-13.06-17.57c0,3.52,2.66,5.42,6.68,6.49,3-1,5.34-3.17,5.34-6.38,0-2.78-1.67-5.71-5.94-5.71C1198.21,1261.72,1196.07,1264.32,1196.07,1267.32Z"/><path class="cls-2" d="M1311.58,1276.12c0,11.92-4.46,18.52-12.23,18.52-6.86,0-11.52-6.43-11.64-18,0-11.81,5.1-18.29,12.23-18.29C1307.35,1258.31,1311.58,1264.93,1311.58,1276.12Zm-19.08.5c0,9.16,2.81,14.33,7.13,14.33,4.84,0,7.16-5.67,7.16-14.62,0-8.67-2.19-14.32-7.13-14.32C1295.52,1262,1292.49,1267.09,1292.5,1276.62Z"/><path class="cls-2" d="M1318.71,1290.69a18.4,18.4,0,0,0,3.81-.19,12.93,12.93,0,0,0,7.38-3.37,15.72,15.72,0,0,0,4.62-9.36h-.14a10.34,10.34,0,0,1-8.31,3.78c-6.31,0-10.36-4.76-10.36-10.77,0-6.61,4.82-12.47,12-12.47s11.61,5.82,11.61,14.84c0,7.71-2.6,13.1-6.06,16.47a17.73,17.73,0,0,1-10.22,4.69,24,24,0,0,1-4.34.28Zm1.71-20.19c0,4.37,2.64,7.45,6.78,7.45a7.93,7.93,0,0,0,6.92-3.69,3.5,3.5,0,0,0,.42-1.74c0-6-2.24-10.57-7.21-10.57C1323.27,1262,1320.41,1265.52,1320.42,1270.5Z"/><rect class="cls-3" x="266.86" y="751.8" width="83.6" height="458.77" rx="16.16"/><rect class="cls-3" x="392.27" y="537.62" width="83.6" height="672.95" rx="16.16"/><rect class="cls-3" x="517.69" y="396.4" width="83.6" height="814.16" rx="16.16"/><rect class="cls-3" x="643.1" y="807.37" width="83.6" height="403.2" rx="16.16"/><rect class="cls-3" x="768.51" y="633.45" width="83.6" height="577.12" rx="16.16"/><rect class="cls-3" x="893.93" y="571.73" width="83.6" height="638.84" rx="16.16"/><rect class="cls-3" x="1019.34" y="467.07" width="83.6" height="743.49" rx="16.16"/><rect class="cls-3" x="1144.76" y="593.59" width="83.6" height="616.98" rx="16.16"/><rect class="cls-3" x="1270.17" y="365.81" width="83.6" height="844.75" rx="16.16"/><g class="cls-4"><rect class="cls-5" x="232.3" y="1125.02" width="1246.88" height="12.08"/><rect class="cls-5" x="232.3" y="900.03" width="1246.88" height="12.08"/><rect class="cls-5" x="232.3" y="675.04" width="1246.88" height="12.08"/><rect class="cls-5" x="232.3" y="450.06" width="1246.88" height="12.08"/><rect class="cls-5" x="232.3" y="225.07" width="1246.88" height="12.08"/></g></svg>